# Blender v2.79 (sub 0) OBJ File: 'container.blend'
# www.blender.org
mtllib containerGray.mtl
o Cube
v 0.500000 -0.500000 -1.200000
v 0.500000 -0.500000 1.200000
v -0.500000 -0.500000 1.200000
v -0.500000 -0.500000 -1.200001
v 0.500000 0.500000 -1.199999
v 0.500000 0.500000 1.200001
v -0.500000 0.500000 1.200000
v -0.500000 0.500000 -1.200000
vt 0.723771 0.688231
vt 0.016907 0.983459
vt 0.016906 0.688231
vt 0.723915 0.980570
vt 0.020331 0.685312
vt 0.723915 0.685312
vt 0.726087 0.983196
vt 0.018213 0.684910
vt 0.726088 0.684910
vt 0.362547 0.364774
vt 0.011492 0.010486
vt 0.362548 0.010486
vt 0.015559 0.981653
vt 0.727700 0.682714
vt 0.727700 0.981653
vt 0.005928 0.003993
vt 0.362861 0.359706
vt 0.005928 0.359706
vt 0.723772 0.983459
vt 0.020331 0.980570
vt 0.018213 0.983196
vt 0.011492 0.364774
vt 0.015559 0.682714
vt 0.362860 0.003993
vn 0.0000 -1.0000 0.0000
vn 0.0000 1.0000 0.0000
vn 1.0000 -0.0000 0.0000
vn -0.0000 -0.0000 1.0000
vn -1.0000 -0.0000 -0.0000
vn 0.0000 0.0000 -1.0000
usemtl Material
s off
f 2/1/1 4/2/1 1/3/1
f 8/4/2 6/5/2 5/6/2
f 5/7/3 2/8/3 1/9/3
f 6/10/4 3/11/4 2/12/4
f 3/13/5 8/14/5 4/15/5
f 1/16/6 8/17/6 5/18/6
f 2/1/1 3/19/1 4/2/1
f 8/4/2 7/20/2 6/5/2
f 5/7/3 6/21/3 2/8/3
f 6/10/4 7/22/4 3/11/4
f 3/13/5 7/23/5 8/14/5
f 1/16/6 4/24/6 8/17/6
